<?xml version="1.0" encoding="UTF-8" standalone="no"?>
<svg width="24px" height="24px" viewBox="0 0 24 24" version="1.1" xmlns="http://www.w3.org/2000/svg" xmlns:xlink="http://www.w3.org/1999/xlink" xmlns:sketch="http://www.bohemiancoding.com/sketch/ns">
    <!-- Generator: Sketch 3.3.1 (12002) - http://www.bohemiancoding.com/sketch -->
    <title>tb_frontview</title>
    <desc>Created with Sketch.</desc>
    <defs></defs>
    <g id="Page-1" stroke="none" stroke-width="1" fill="none" fill-rule="evenodd" sketch:type="MSPage">
        <g id="tb_frontview" sketch:type="MSArtboardGroup">
            <g id="Group" sketch:type="MSLayerGroup" transform="translate(4.000000, 5.000000)">
                <path id="Fill-3381" fill="#666666" sketch:type="MSShapeGroup" d="M6.2189375,14.2600305 L6.125,14.546875 L6.125,7.890625 L6.2189375,7.89132265 L6.2189375,14.2600305"></path>
                <path id="Fill-3382" fill="#666666" sketch:type="MSShapeGroup" d="M6.20802641,7.8914125 L6.125,7.890625 L9.96875,7.890625 L9.88571116,7.8914125 L6.20802641,7.8914125"></path>
                <path id="Fill-3383" fill="#666666" sketch:type="MSShapeGroup" d="M9.875,7.89132265 L9.96895156,7.890625 L9.96895156,14.546875 L9.875,14.2600305 L9.875,7.89132265"></path>
                <path d="M10.109375,1.75 L11.375,1.75 L11.375,3.671875 L10.109375,2.63463698 L10.109375,1.75" id="Fill-3384" fill="#FFFFFF" sketch:type="MSShapeGroup"></path>
                <path id="Fill-3385" fill="#403F37" sketch:type="MSShapeGroup" d="M15.96875,7.890625 L13.859375,7.89550469 L13.859375,7.89145469 L14.1352701,7.890625 L15.96875,7.890625"></path>
                <path id="Fill-3386" fill="#403F37" sketch:type="MSShapeGroup" d="M2.375,7.89550469 L0.265625,7.890625 L2.09909072,7.890625 L2.375,7.89145469 L2.375,7.89550469"></path>
                <path id="Fill-3387" fill="#403F37" sketch:type="MSShapeGroup" d="M2.28125,7.84375 L2,7.84301039 L2,6.625 L2.28125,6.68067123 L2.28125,7.84375"></path>
                <path d="M9.96875,14.265625 L6.265625,14.265625 L6.265625,7.890625 L9.96875,7.890625 L9.96875,14.265625" id="Fill-3388" fill="#2A2A2A" sketch:type="MSShapeGroup"></path>
                <path d="M6.09375,14.59375 L2.234375,14.59375 L2.234375,7.92317817 L2.234375,7.91958062 L2.234375,6.76060703 L8.0234375,2.125 L13.8125,6.76060703 L13.8125,7.91958062 L13.8125,7.92317817 L13.8125,14.59375 L9.953125,14.59375 L9.953125,7.91958062 L6.09375,7.91958062 L6.09375,14.59375" id="Fill-3389" stroke="#000000" fill="#FFFFFF" sketch:type="MSShapeGroup"></path>
                <path d="M8.09375,2.02533582 L2.27510199,6.671875 L2,6.61626944 L8.09375,1.75 L8.09375,2.02533582" id="Fill-3390" fill="#403F37" sketch:type="MSShapeGroup"></path>
                <path d="M8.16405625,1.75127537 L2.08832162,6.62525006 L2.08832162,7.84375 L0.265625,7.84375 L0.265625,7.19555463 L8.16405625,0.859375 L10.0163804,2.34534473 L10.239068,2.523938 L11.5245554,3.5550912 L16.0625,7.19555463 L16.0625,7.84375 L14.2397784,7.84375 L14.2397784,6.62525006 L8.16405625,1.75127537" id="Fill-3391" fill="#3D2A24" sketch:type="MSShapeGroup"></path>
                <path id="Fill-3392" fill="#666666" sketch:type="MSShapeGroup" d="M10.109375,2.640625 L9.875,2.45976184 L9.875,2.42553488 L10.109375,1.75 L10.109375,2.640625"></path>
                <path d="M13.959285,6.671875 L8.140625,2.02533582 L8.140625,1.75 L14.234375,6.61626944 L13.959285,6.671875" id="Fill-3393" fill="#403F37" sketch:type="MSShapeGroup"></path>
                <path id="Fill-3394" fill="#403F37" sketch:type="MSShapeGroup" d="M13.859375,7.84375 L13.859375,6.68067123 L14.140625,6.625 L14.140625,7.84301039 L13.859375,7.84375"></path>
                <path d="M2.234375,6.765625 L8.0234375,2.125 L13.8125,6.765625" id="Stroke-3395" stroke="#000000" stroke-width="0.5" stroke-linecap="round" stroke-linejoin="round" sketch:type="MSShapeGroup"></path>
                <path id="Stroke-3396" stroke="#000000" stroke-width="0.5" stroke-linecap="round" stroke-linejoin="round" sketch:type="MSShapeGroup" d="M6.125,14.546875 L6.125,7.890625"></path>
                <path id="Stroke-3397" stroke="#000000" stroke-width="0.5" stroke-linecap="round" stroke-linejoin="round" sketch:type="MSShapeGroup" d="M10.015625,14.546875 L10.015625,7.890625"></path>
                <path id="Stroke-3398" stroke="#000000" stroke-width="0.5" stroke-linecap="round" stroke-linejoin="round" sketch:type="MSShapeGroup" d="M2.234375,7.9375 L2.234375,6.765625"></path>
                <path d="M13.859375,7.9375 L13.859375,6.765625" id="Stroke-3399" stroke="#000000" stroke-width="0.5" stroke-linecap="round" stroke-linejoin="round" sketch:type="MSShapeGroup"></path>
                <path d="M9.875,14.265625 L9.875,7.890625" id="Stroke-3400" stroke="#000000" stroke-width="0.5" stroke-linecap="round" stroke-linejoin="round" sketch:type="MSShapeGroup"></path>
                <path d="M6.265625,14.265625 L6.265625,7.890625" id="Stroke-3401" stroke="#000000" stroke-width="0.5" stroke-linecap="round" stroke-linejoin="round" sketch:type="MSShapeGroup"></path>
                <path d="M2,6.625 L8.09375,1.75" id="Stroke-3402" stroke="#000000" stroke-width="0.5" stroke-linecap="round" stroke-linejoin="round" sketch:type="MSShapeGroup"></path>
                <path id="Stroke-3403" stroke="#000000" stroke-width="0.5" stroke-linecap="round" stroke-linejoin="round" sketch:type="MSShapeGroup" d="M2,7.84375 L2,6.625"></path>
                <path id="Stroke-3404" stroke="#000000" stroke-width="0.5" stroke-linecap="round" stroke-linejoin="round" sketch:type="MSShapeGroup" d="M14.140625,7.84375 L14.140625,6.625"></path>
                <path d="M8.140625,1.75 L14.234375,6.625" id="Stroke-3405" stroke="#000000" stroke-width="0.5" stroke-linecap="round" stroke-linejoin="round" sketch:type="MSShapeGroup"></path>
                <path id="Stroke-3406" stroke="#000000" stroke-width="0.5" stroke-linecap="round" stroke-linejoin="round" sketch:type="MSShapeGroup" d="M2.28125,6.6874375 L2,6.625"></path>
                <path id="Stroke-3407" stroke="#000000" stroke-width="0.5" stroke-linecap="round" stroke-linejoin="round" sketch:type="MSShapeGroup" d="M8.140625,2.03125 L8.140625,1.75"></path>
                <path id="Stroke-3408" stroke="#000000" stroke-width="0.5" stroke-linecap="round" stroke-linejoin="round" sketch:type="MSShapeGroup" d="M13.859375,6.6874375 L14.140625,6.625"></path>
                <path d="M10.109375,1.75 L10.109375,2.640625" id="Stroke-3409" stroke="#000000" stroke-width="0.5" stroke-linecap="round" stroke-linejoin="round" sketch:type="MSShapeGroup"></path>
                <path id="Stroke-3410" stroke="#000000" stroke-width="0.5" stroke-linecap="round" stroke-linejoin="round" sketch:type="MSShapeGroup" d="M2.234375,14.640625 L6.078125,14.640625"></path>
                <path id="Stroke-3411" stroke="#000000" stroke-width="0.5" stroke-linecap="round" stroke-linejoin="round" sketch:type="MSShapeGroup" d="M10.015625,14.640625 L13.859375,14.640625"></path>
                <path id="Stroke-3412" stroke="#000000" stroke-width="0.5" stroke-linecap="round" stroke-linejoin="round" sketch:type="MSShapeGroup" d="M6.125,7.890625 L9.96875,7.890625"></path>
                <path id="Stroke-3413" stroke="#000000" stroke-width="0.5" stroke-linecap="round" stroke-linejoin="round" sketch:type="MSShapeGroup" d="M6.125,14.546875 L6.2189375,14.265625"></path>
                <path id="Stroke-3414" stroke="#000000" stroke-width="0.5" stroke-linecap="round" stroke-linejoin="round" sketch:type="MSShapeGroup" d="M6.125,7.890625 L6.2189375,7.89132812"></path>
                <path id="Stroke-3415" stroke="#000000" stroke-width="0.5" stroke-linecap="round" stroke-linejoin="round" sketch:type="MSShapeGroup" d="M9.96895156,7.890625 L9.875,7.89132812"></path>
                <path id="Stroke-3416" stroke="#000000" stroke-width="0.5" stroke-linecap="round" stroke-linejoin="round" sketch:type="MSShapeGroup" d="M9.96895156,14.546875 L9.875,14.265625"></path>
                <path id="Stroke-3417" stroke="#000000" stroke-width="0.5" stroke-linecap="round" stroke-linejoin="round" sketch:type="MSShapeGroup" d="M15.96875,7.890625 L13.859375,7.89554688"></path>
                <path id="Stroke-3418" stroke="#000000" stroke-width="0.5" stroke-linecap="round" stroke-linejoin="round" sketch:type="MSShapeGroup" d="M0.265625,7.890625 L2.375,7.89554688"></path>
                <path id="Stroke-3419" stroke="#000000" stroke-width="0.5" stroke-linecap="round" stroke-linejoin="round" sketch:type="MSShapeGroup" d="M6.265625,14.265625 L9.96875,14.265625"></path>
                <path id="Stroke-3420" stroke="#000000" stroke-width="0.5" stroke-linecap="round" stroke-linejoin="round" sketch:type="MSShapeGroup" d="M6.265625,7.890625 L9.96875,7.890625"></path>
                <path d="M2.09375,7.890625 L0.265625,7.890625 L0.265625,7.234375" id="Stroke-3421" stroke="#000000" stroke-width="0.5" stroke-linecap="round" stroke-linejoin="round" sketch:type="MSShapeGroup"></path>
                <path d="M8.140625,0.859375 L0.265625,7.1875" id="Stroke-3422" stroke="#000000" stroke-width="0.5" stroke-linecap="round" stroke-linejoin="round" sketch:type="MSShapeGroup"></path>
                <path d="M16.015625,7.234375 L16.015625,7.890625" id="Stroke-3423" stroke="#000000" stroke-width="0.5" stroke-linecap="round" stroke-linejoin="round" sketch:type="MSShapeGroup"></path>
                <path id="Stroke-3424" stroke="#000000" stroke-width="0.5" stroke-linecap="round" stroke-linejoin="round" sketch:type="MSShapeGroup" d="M14.140625,7.890625 L15.96875,7.890625"></path>
                <path id="Stroke-3425" stroke="#000000" stroke-width="0.5" stroke-linecap="round" stroke-linejoin="round" sketch:type="MSShapeGroup" d="M2.28125,7.89146875 L2,7.890625"></path>
                <path id="Stroke-3426" stroke="#000000" stroke-width="0.5" stroke-linecap="round" stroke-linejoin="round" sketch:type="MSShapeGroup" d="M13.859375,7.89146875 L14.140625,7.890625"></path>
                <path id="Stroke-3427" stroke="#000000" stroke-width="0.5" stroke-linecap="round" stroke-linejoin="round" sketch:type="MSShapeGroup" d="M9.875,2.453125 L9.875,2.41915761 L10.109375,1.75"></path>
                <path d="M11.375,3.671875 L11.375,1.75 L10.109375,1.75" id="Stroke-3428" stroke="#000000" stroke-width="0.5" stroke-linecap="round" stroke-linejoin="round" sketch:type="MSShapeGroup"></path>
                <path id="Stroke-3429" stroke="#000000" stroke-width="0.5" stroke-linecap="round" stroke-linejoin="round" sketch:type="MSShapeGroup" d="M2.234375,14.546875 L2.234375,7.89423786 L2.234375,7.890625"></path>
                <path id="Stroke-3430" stroke="#000000" stroke-width="0.5" stroke-linecap="round" stroke-linejoin="round" sketch:type="MSShapeGroup" d="M13.859375,14.546875 L13.859375,7.89423786 L13.859375,7.890625"></path>
                <path d="M8.140625,0.859375 L9.98745113,2.34355672 L10.2094778,2.52190902 L11.4911497,3.55169316 L16.015625,7.1875" id="Stroke-3431" stroke="#000000" stroke-width="0.5" stroke-linecap="round" stroke-linejoin="round" sketch:type="MSShapeGroup"></path>
            </g>
        </g>
    </g>
</svg>