<?xml version="1.0" encoding="UTF-8" standalone="no"?>
<svg width="24px" height="24px" viewBox="0 0 24 24" version="1.1" xmlns="http://www.w3.org/2000/svg" xmlns:xlink="http://www.w3.org/1999/xlink" xmlns:sketch="http://www.bohemiancoding.com/sketch/ns">
    <!-- Generator: Sketch 3.3.1 (12002) - http://www.bohemiancoding.com/sketch -->
    <title>tb_leftview</title>
    <desc>Created with Sketch.</desc>
    <defs></defs>
    <g id="Page-1" stroke="none" stroke-width="1" fill="none" fill-rule="evenodd" sketch:type="MSPage">
        <g id="tb_leftview" sketch:type="MSArtboardGroup">
            <g id="Group" sketch:type="MSLayerGroup" transform="translate(3.000000, 4.000000)">
                <path d="M15.375,8 L15.375,15.40625 L2.484375,15.40625 L2.484375,8 L15.375,8" id="Fill-3468" stroke="#000000" stroke-width="0.5" fill="#FFFFFF" sketch:type="MSShapeGroup"></path>
                <path d="M8.10862266,2 L15.3575674,2 L17.34375,7.296875 L0.75,7.296875 L2.73618256,2 L4.77755422,2 L8.0636885,2 L8.10862266,2" id="Fill-3469" fill="#8F8E7C" sketch:type="MSShapeGroup"></path>
                <path d="M0.75,7.25 L17.34375,7.25 L17.34375,8 L16.7819667,8 L15.4927201,8 L2.6010299,8 L1.31178334,8 L0.75,8 L0.75,7.25" id="Fill-3470" fill="#3D2A24" sketch:type="MSShapeGroup"></path>
                <path id="Fill-3471" fill="#403F37" sketch:type="MSShapeGroup" d="M1.3125,8.00151875 L0.75,8 L1.3125,8 L1.3125,8.00151875"></path>
                <path id="Fill-3472" fill="#403F37" sketch:type="MSShapeGroup" d="M1.265625,8.00151875 L1.265625,8 L2.53125,8 L2.53125,8.00151875 L1.265625,8.00151875"></path>
                <path id="Fill-3473" fill="#403F37" sketch:type="MSShapeGroup" d="M2.484375,8.00151875 L2.484375,8 L15.375,8 L15.375,8.00151875 L2.484375,8.00151875"></path>
                <path id="Fill-3474" fill="#403F37" sketch:type="MSShapeGroup" d="M15.515625,8.00151875 L15.515625,8 L16.78125,8 L16.78125,8.00151875 L15.515625,8.00151875"></path>
                <path id="Fill-3475" fill="#403F37" sketch:type="MSShapeGroup" d="M16.734375,8.00151875 L16.734375,8 L17.296875,8 L16.734375,8.00151875"></path>
                <path d="M4.734375,1.953125 L4.734375,1.390625 L8.015625,1.390625 L8.015625,1.953125 L4.734375,1.953125" id="Fill-3476" fill="#FFFFFF" sketch:type="MSShapeGroup"></path>
                <path id="Fill-3477" fill="#666666" sketch:type="MSShapeGroup" d="M8.015625,1.953125 L8.015625,1.390625 L8.06615156,1.69910142 L8.06615156,1.953125 L8.015625,1.953125"></path>
                <path id="Stroke-3478" stroke="#000000" stroke-width="0.5" stroke-linecap="round" stroke-linejoin="round" sketch:type="MSShapeGroup" d="M15.515625,8.00154687 L15.515625,8"></path>
                <path id="Stroke-3479" stroke="#000000" stroke-width="0.5" stroke-linecap="round" stroke-linejoin="round" sketch:type="MSShapeGroup" d="M2.484375,8.00154687 L2.484375,8"></path>
                <path id="Stroke-3480" stroke="#000000" stroke-width="0.5" stroke-linecap="round" stroke-linejoin="round" sketch:type="MSShapeGroup" d="M17.34375,7.25 L0.75,7.25"></path>
                <path id="Stroke-3481" stroke="#000000" stroke-width="0.5" stroke-linecap="round" stroke-linejoin="round" sketch:type="MSShapeGroup" d="M1.265625,8.00154687 L1.265625,8"></path>
                <path id="Stroke-3482" stroke="#000000" stroke-width="0.5" stroke-linecap="round" stroke-linejoin="round" sketch:type="MSShapeGroup" d="M15.375,8 L2.484375,8"></path>
                <path id="Stroke-3483" stroke="#000000" stroke-width="0.5" stroke-linecap="round" stroke-linejoin="round" sketch:type="MSShapeGroup" d="M16.734375,8.00154687 L16.734375,8"></path>
                <path d="M8.015625,1.390625 L8.015625,1.953125" id="Stroke-3484" stroke="#000000" stroke-width="0.5" stroke-linecap="round" stroke-linejoin="round" sketch:type="MSShapeGroup"></path>
                <path id="Stroke-3485" stroke="#000000" stroke-width="0.5" stroke-linecap="round" stroke-linejoin="round" sketch:type="MSShapeGroup" d="M15.515625,15.40625 L15.515625,8"></path>
                <path id="Stroke-3486" stroke="#000000" stroke-width="0.5" stroke-linecap="round" stroke-linejoin="round" sketch:type="MSShapeGroup" d="M2.484375,15.40625 L2.484375,8"></path>
                <path id="Stroke-3487" stroke="#000000" stroke-width="0.5" stroke-linecap="round" stroke-linejoin="round" sketch:type="MSShapeGroup" d="M15.375,15.359375 L2.484375,15.359375"></path>
                <path d="M1.3125,8 L0.75,7.9985998 L0.75,7.25" id="Stroke-3488" stroke="#000000" stroke-width="0.5" stroke-linecap="round" stroke-linejoin="round" sketch:type="MSShapeGroup"></path>
                <path d="M2.71875,2 L0.75,7.296875" id="Stroke-3489" stroke="#000000" stroke-width="0.5" stroke-linecap="round" stroke-linejoin="round" sketch:type="MSShapeGroup"></path>
                <path id="Stroke-3490" stroke="#000000" stroke-width="0.5" stroke-linecap="round" stroke-linejoin="round" sketch:type="MSShapeGroup" d="M2.53125,8 L1.265625,8"></path>
                <path d="M16.734375,8 L17.296875,7.9985998 L17.296875,7.25" id="Stroke-3491" stroke="#000000" stroke-width="0.5" stroke-linecap="round" stroke-linejoin="round" sketch:type="MSShapeGroup"></path>
                <path d="M15.234375,2 L17.203125,7.296875" id="Stroke-3492" stroke="#000000" stroke-width="0.5" stroke-linecap="round" stroke-linejoin="round" sketch:type="MSShapeGroup"></path>
                <path id="Stroke-3493" stroke="#000000" stroke-width="0.5" stroke-linecap="round" stroke-linejoin="round" sketch:type="MSShapeGroup" d="M15.515625,8 L16.78125,8"></path>
                <path d="M4.734375,1.953125 L4.734375,1.390625 L8.015625,1.390625" id="Stroke-3494" stroke="#000000" stroke-width="0.5" stroke-linecap="round" stroke-linejoin="round" sketch:type="MSShapeGroup"></path>
                <path id="Stroke-3495" stroke="#000000" stroke-width="0.5" stroke-linecap="round" stroke-linejoin="round" sketch:type="MSShapeGroup" d="M8.06615156,1.953125 L8.06615156,1.69909687 L8.015625,1.390625"></path>
                <path d="M4.828125,2 L2.765625,2" id="Stroke-3496" stroke="#000000" stroke-width="0.5" stroke-linecap="round" stroke-linejoin="round" sketch:type="MSShapeGroup"></path>
                <path id="Stroke-3497" stroke="#000000" stroke-width="0.5" stroke-linecap="round" stroke-linejoin="round" sketch:type="MSShapeGroup" d="M1.3125,8 L0.75,8"></path>
                <path id="Stroke-3499" stroke="#000000" stroke-width="0.5" stroke-linecap="round" stroke-linejoin="round" sketch:type="MSShapeGroup" d="M2.53125,8 L1.265625,8"></path>
                <path id="Stroke-3501" stroke="#000000" stroke-width="0.5" stroke-linecap="round" stroke-linejoin="round" sketch:type="MSShapeGroup" d="M15.375,8 L2.484375,8"></path>
                <path id="Stroke-3502" stroke="#000000" stroke-width="0.5" stroke-linecap="round" stroke-linejoin="round" sketch:type="MSShapeGroup" d="M17.34375,8 L16.7889182,8 L15.515625,8"></path>
                <path d="M4.63232422,2.25 L15.1728516,2.25" id="Path-4135" stroke="#000000" stroke-width="0.5" sketch:type="MSShapeGroup"></path>
            </g>
        </g>
    </g>
</svg>