<?xml version="1.0" encoding="UTF-8" standalone="no"?>
<svg width="24px" height="24px" viewBox="0 0 24 24" version="1.1" xmlns="http://www.w3.org/2000/svg" xmlns:xlink="http://www.w3.org/1999/xlink" xmlns:sketch="http://www.bohemiancoding.com/sketch/ns">
    <!-- Generator: Sketch 3.3.1 (12002) - http://www.bohemiancoding.com/sketch -->
    <title>tb_rightview</title>
    <desc>Created with Sketch.</desc>
    <defs></defs>
    <g id="Page-1" stroke="none" stroke-width="1" fill="none" fill-rule="evenodd" sketch:type="MSPage">
        <g id="tb_rightview" sketch:type="MSArtboardGroup">
            <g id="Group" sketch:type="MSLayerGroup" transform="translate(3.000000, 3.000000)">
                <path d="M2.484375,16.40625 L2.484375,9 L15.375,9 L15.375,16.40625 L2.484375,16.40625" id="Fill-3503" stroke="#000000" stroke-width="0.5" fill="#FFFFFF" sketch:type="MSShapeGroup"></path>
                <path id="Fill-3504" fill="#403F37" sketch:type="MSShapeGroup" d="M15.375,9.00151875 L2.484375,9.00151875 L2.484375,9 L15.375,9 L15.375,9.00151875"></path>
                <path d="M14.399699,3 L15.3575379,3 L17.34375,8.296875 L0.75,8.296875 L2.73618705,3 L10.2097945,3 L10.2097945,4.53815555 L10.2795783,5.64064044 L14.399699,5.64064044 L14.399699,3" id="Fill-3505" fill="#8F8E7C" sketch:type="MSShapeGroup"></path>
                <path id="Fill-3506" fill="#666666" sketch:type="MSShapeGroup" d="M10.125,4.5205531 L10.125,2.97966021 L10.125,1.2196848 L10.2034687,0.75 L10.2034687,5.625 L10.125,4.5205531"></path>
                <path d="M14.390625,2.97966021 L14.390625,5.625 L10.265625,5.625 L10.265625,0.75 L14.390625,0.75 L14.390625,2.97966021" id="Fill-3507" stroke="#000000" stroke-width="0.5" fill="#FFFFFF" sketch:type="MSShapeGroup"></path>
                <path d="M17.34375,8.25 L17.34375,9 L16.7819779,9 L15.4927284,9 L2.60103408,9 L1.31178461,9 L0.75,9 L0.75,8.25 L17.34375,8.25" id="Fill-3508" fill="#3D2A24" sketch:type="MSShapeGroup"></path>
                <path id="Fill-3509" fill="#403F37" sketch:type="MSShapeGroup" d="M16.734375,9 L17.296875,9 L16.734375,9.00151875 L16.734375,9"></path>
                <path id="Fill-3510" fill="#403F37" sketch:type="MSShapeGroup" d="M16.78125,9 L16.78125,9.00151875 L15.515625,9.00151875 L15.515625,9 L16.78125,9"></path>
                <path id="Fill-3511" fill="#403F37" sketch:type="MSShapeGroup" d="M2.53125,9 L2.53125,9.00151875 L1.265625,9.00151875 L1.265625,9 L2.53125,9"></path>
                <path id="Fill-3512" fill="#403F37" sketch:type="MSShapeGroup" d="M1.3125,9.00151875 L0.75,9 L1.3125,9 L1.3125,9.00151875"></path>
                <path id="Stroke-3513" stroke="#000000" stroke-width="0.5" stroke-linecap="round" stroke-linejoin="round" sketch:type="MSShapeGroup" d="M2.484375,9.00154687 L2.484375,9"></path>
                <path id="Stroke-3514" stroke="#000000" stroke-width="0.5" stroke-linecap="round" stroke-linejoin="round" sketch:type="MSShapeGroup" d="M15.515625,9.00154687 L15.515625,9"></path>
                <path id="Stroke-3515" stroke="#000000" stroke-width="0.5" stroke-linecap="round" stroke-linejoin="round" sketch:type="MSShapeGroup" d="M0.75,8.25 L17.34375,8.25"></path>
                <path id="Stroke-3516" stroke="#000000" stroke-width="0.5" stroke-linecap="round" stroke-linejoin="round" sketch:type="MSShapeGroup" d="M16.734375,9.00154687 L16.734375,9"></path>
                <path id="Stroke-3517" stroke="#000000" stroke-width="0.5" stroke-linecap="round" stroke-linejoin="round" sketch:type="MSShapeGroup" d="M2.484375,9 L15.375,9"></path>
                <path id="Stroke-3518" stroke="#000000" stroke-width="0.5" stroke-linecap="round" stroke-linejoin="round" sketch:type="MSShapeGroup" d="M1.265625,9.00154687 L1.265625,9"></path>
                <path d="M10.125,4.5 L10.1944835,5.578125 L14.296875,5.578125" id="Stroke-3519" stroke="#000000" stroke-width="0.5" stroke-linecap="round" stroke-linejoin="round" sketch:type="MSShapeGroup"></path>
                <path id="Stroke-3520" stroke="#000000" stroke-width="0.5" stroke-linecap="round" stroke-linejoin="round" sketch:type="MSShapeGroup" d="M10.265625,5.625 L10.265625,0.75"></path>
                <path id="Stroke-3521" stroke="#000000" stroke-width="0.5" stroke-linecap="round" stroke-linejoin="round" sketch:type="MSShapeGroup" d="M2.484375,16.40625 L2.484375,9"></path>
                <path id="Stroke-3522" stroke="#000000" stroke-width="0.5" stroke-linecap="round" stroke-linejoin="round" sketch:type="MSShapeGroup" d="M15.515625,16.40625 L15.515625,9"></path>
                <path id="Stroke-3523" stroke="#000000" stroke-width="0.5" stroke-linecap="round" stroke-linejoin="round" sketch:type="MSShapeGroup" d="M2.484375,16.359375 L15.375,16.359375"></path>
                <path d="M2.765625,3 L10.21875,3" id="Stroke-3524" stroke="#000000" stroke-width="0.5" stroke-linecap="round" stroke-linejoin="round" sketch:type="MSShapeGroup"></path>
                <path d="M14.390625,3 L15.3514161,3 L17.34375,8.26748459 L17.34375,9" id="Stroke-3525" stroke="#000000" stroke-width="0.5" stroke-linecap="round" stroke-linejoin="round" sketch:type="MSShapeGroup"></path>
                <path id="Stroke-3526" stroke="#000000" stroke-width="0.5" stroke-linecap="round" stroke-linejoin="round" sketch:type="MSShapeGroup" d="M16.734375,9.00154687 L17.296875,9"></path>
                <path id="Stroke-3527" stroke="#000000" stroke-width="0.5" stroke-linecap="round" stroke-linejoin="round" sketch:type="MSShapeGroup" d="M15.515625,9 L16.78125,9"></path>
                <path d="M2.71875,3 L0.75,8.26748459 L0.75,9" id="Stroke-3528" stroke="#000000" stroke-width="0.5" stroke-linecap="round" stroke-linejoin="round" sketch:type="MSShapeGroup"></path>
                <path id="Stroke-3529" stroke="#000000" stroke-width="0.5" stroke-linecap="round" stroke-linejoin="round" sketch:type="MSShapeGroup" d="M1.3125,9.00154687 L0.75,9"></path>
                <path id="Stroke-3530" stroke="#000000" stroke-width="0.5" stroke-linecap="round" stroke-linejoin="round" sketch:type="MSShapeGroup" d="M2.53125,9 L1.265625,9"></path>
                <path id="Stroke-3531" stroke="#000000" stroke-width="0.5" stroke-linecap="round" stroke-linejoin="round" sketch:type="MSShapeGroup" d="M10.2034687,0.75 L10.125,1.21875"></path>
                <path id="Stroke-3532" stroke="#000000" stroke-width="0.5" stroke-linecap="round" stroke-linejoin="round" sketch:type="MSShapeGroup" d="M14.390625,0.75 L10.265625,0.75"></path>
                <path id="Stroke-3533" stroke="#000000" stroke-width="0.5" stroke-linecap="round" stroke-linejoin="round" sketch:type="MSShapeGroup" d="M0.75,9 L1.3125,9"></path>
                <path id="Stroke-3534" stroke="#000000" stroke-width="0.5" stroke-linecap="round" stroke-linejoin="round" sketch:type="MSShapeGroup" d="M10.125,1.265625 L10.125,3.01507619 L10.125,4.546875"></path>
                <path id="Stroke-3535" stroke="#000000" stroke-width="0.5" stroke-linecap="round" stroke-linejoin="round" sketch:type="MSShapeGroup" d="M14.390625,0.75 L14.390625,2.97958599 L14.390625,5.625"></path>
                <path id="Stroke-3536" stroke="#000000" stroke-width="0.5" stroke-linecap="round" stroke-linejoin="round" sketch:type="MSShapeGroup" d="M1.265625,9 L2.55481694,9 L15.445936,9 L16.735128,9 L17.296875,9"></path>
            </g>
        </g>
    </g>
</svg>