<?xml version="1.0" encoding="UTF-8"?>
<!DOCTYPE svg PUBLIC "-//W3C//DTD SVG 1.1//EN" "http://www.w3.org/Graphics/SVG/1.1/DTD/svg11.dtd">
<svg xmlns="http://www.w3.org/2000/svg" version="1.1" width="256px" height="256px" style="shape-rendering:geometricPrecision; text-rendering:geometricPrecision; image-rendering:optimizeQuality; fill-rule:evenodd; clip-rule:evenodd" xmlns:xlink="http://www.w3.org/1999/xlink">
<g><path style="opacity:0.848" fill="#fbbd1b" d="M 176.5,48.5 C 176.5,49.8333 177.167,50.5 178.5,50.5C 194.807,66.4727 211.14,82.4727 227.5,98.5C 227.5,99.8333 228.167,100.5 229.5,100.5C 231.5,101.833 233.167,103.5 234.5,105.5C 234.5,107.5 235.5,108.5 237.5,108.5C 245.061,115.666 246.228,123.666 241,132.5C 237.986,134.519 235.32,136.852 233,139.5C 233.219,164.076 233.719,187.743 234.5,210.5C 234.079,216.415 232.079,221.582 228.5,226C 231.739,228.034 235.072,228.701 238.5,228C 245.547,230.52 246.214,234.186 240.5,239C 236.637,239.713 232.637,240.879 228.5,242.5C 217.625,243.583 206.792,243.583 196,242.5C 195.311,243.357 194.478,244.023 193.5,244.5C 190.727,243.92 187.893,243.587 185,243.5C 181.667,244.167 178.333,244.833 175,245.5C 145.221,245.271 114.721,245.271 83.5,245.5C 82.0055,245.291 80.8388,244.624 80,243.5C 78.5125,245.83 76.6791,246.164 74.5,244.5C 75.463,243.637 75.463,242.97 74.5,242.5C 73.7025,242.957 73.3691,243.624 73.5,244.5C 55.86,243.826 38.5267,242.826 21.5,241.5C 20.9941,239.895 20.3274,239.561 19.5,240.5C 17.8008,240.66 16.1341,240.494 14.5,240C 13.2842,238.26 11.6175,237.26 9.5,237C 6.81901,233.652 7.48567,230.985 11.5,229C 13.556,228.689 15.556,228.189 17.5,227.5C 18.1667,227.833 18.8333,228.167 19.5,228.5C 20.7003,227.469 22.0337,226.635 23.5,226C 20.3609,221.55 18.6942,216.55 18.5,211C 19.3641,187.49 19.8641,163.656 20,139.5C 19.6667,138.5 19.3333,137.5 19,136.5C 15.0595,134.193 11.7262,131.193 9,127.5C 8.33508,125.034 7.83508,122.867 7.5,121C 8.56535,118.589 9.89868,116.422 11.5,114.5C 13.6977,114.591 14.0311,113.925 12.5,112.5C 13.1667,111.833 13.8333,111.167 14.5,110.5C 16.6977,110.591 17.0311,109.925 15.5,108.5C 48.3942,76.7733 80.3942,44.2733 111.5,11C 114.82,8.00552 118.487,5.50552 122.5,3.5C 124.5,3.5 126.5,3.5 128.5,3.5C 133.683,5.68057 138.35,8.68057 142.5,12.5C 153.517,24.8489 164.85,36.8489 176.5,48.5 Z"/></g>
<g><path style="opacity:0.934" fill="#faf9f6" d="M 26.5,109.5 C 38.2533,96.2783 50.92,83.945 64.5,72.5C 77.7631,58.5131 91.0964,44.5131 104.5,30.5C 110.556,24.1108 117.222,18.4441 124.5,13.5C 128.622,13.9441 132.288,15.4441 135.5,18C 166.132,49.965 197.632,81.465 230,112.5C 233.111,116.722 234.111,121.389 233,126.5C 232.586,126.957 232.086,127.291 231.5,127.5C 229.494,127.868 227.494,127.368 225.5,126C 192.788,93.1218 159.788,60.2885 126.5,27.5C 123.339,30.4915 120.005,33.3248 116.5,36C 88.1439,64.8855 59.8105,93.7188 31.5,122.5C 29.1667,123.833 26.8333,125.167 24.5,126.5C 22.6318,126.054 20.7985,125.721 19,125.5C 18.0218,122.331 18.5218,119.497 20.5,117C 20.1667,116.667 19.8333,116.333 19.5,116C 21.7359,113.657 24.0692,111.49 26.5,109.5 Z"/></g>
<g><path style="opacity:0.319" fill="#00be19" d="M 176.5,48.5 C 177.5,48.8333 178.167,49.5 178.5,50.5C 177.167,50.5 176.5,49.8333 176.5,48.5 Z"/></g>
<g><path style="opacity:0.207" fill="#00be19" d="M 227.5,98.5 C 228.5,98.8333 229.167,99.5 229.5,100.5C 228.167,100.5 227.5,99.8333 227.5,98.5 Z"/></g>
<g><path style="opacity:0.253" fill="#43bf18" d="M 234.5,105.5 C 235.833,106.167 236.833,107.167 237.5,108.5C 235.5,108.5 234.5,107.5 234.5,105.5 Z"/></g>
<g><path style="opacity:0.263" fill="#00be19" d="M 15.5,108.5 C 17.0311,109.925 16.6977,110.591 14.5,110.5C 14.3284,109.508 14.6618,108.842 15.5,108.5 Z"/></g>
<g><path style="opacity:0.337" fill="#00bf18" d="M 12.5,112.5 C 14.0311,113.925 13.6977,114.591 11.5,114.5C 11.3284,113.508 11.6618,112.842 12.5,112.5 Z"/></g>
<g><path style="opacity:0.927" fill="#faf9f6" d="M 86.5,210.5 C 107.759,210.537 129.759,210.537 152.5,210.5C 152.435,210.938 152.601,211.272 153,211.5C 153.333,210.833 153.667,210.167 154,209.5C 157.131,210.206 160.298,210.873 163.5,211.5C 180.574,210.588 197.408,210.588 214,211.5C 214.315,208.628 214.815,205.795 215.5,203C 215.59,180.207 215.256,157.54 214.5,135C 215.12,132.527 215.786,130.027 216.5,127.5C 219.934,131.111 223.767,134.111 228,136.5C 228.095,156.443 228.595,175.943 229.5,195C 228.576,202.998 227.576,210.832 226.5,218.5C 226.608,219.442 226.941,220.275 227.5,221C 225.99,221.85 224.49,222.683 223,223.5C 215.607,224.524 208.107,224.524 200.5,223.5C 198.674,225.781 196.674,225.781 194.5,223.5C 176.819,224.142 159.485,224.476 142.5,224.5C 125.688,224.124 108.688,224.124 91.5,224.5C 91.1667,223.167 90.8333,223.167 90.5,224.5C 72.6249,223.958 54.2916,223.958 35.5,224.5C 30.9217,224.576 27.7551,222.576 26,218.5C 25.1192,209.093 24.2858,199.426 23.5,189.5C 23.6672,176.562 24.3339,163.062 25.5,149C 24.9971,145.783 24.6638,142.617 24.5,139.5C 24.6667,138.5 24.8333,137.5 25,136.5C 29.0059,134.082 32.5059,131.082 35.5,127.5C 36.4063,129.386 37.4063,131.22 38.5,133C 37.8435,157.977 37.6769,183.477 38,209.5C 48.041,210.357 58.3743,210.357 69,209.5C 69.3333,210.167 69.6667,210.833 70,211.5C 75.3738,210.549 80.8738,210.216 86.5,210.5 Z"/></g>
<g><path style="opacity:0.923" fill="#f9f9f8" d="M 107.5,129.5 C 109.865,130.008 112.199,130.675 114.5,131.5C 118.312,131.614 121.978,131.281 125.5,130.5C 126.748,131.04 127.915,131.707 129,132.5C 131.608,131.701 134.274,130.701 137,129.5C 139.124,130.227 141.291,130.894 143.5,131.5C 145.098,131.39 146.765,131.057 148.5,130.5C 149.189,135.718 149.856,140.884 150.5,146C 150.045,148.312 149.045,150.312 147.5,152C 149.658,153.312 149.991,154.978 148.5,157C 149.167,157.333 149.833,157.667 150.5,158C 149.833,159.667 149.167,161.333 148.5,163C 150.399,173.523 150.399,184.19 148.5,195C 149.167,195.333 149.833,195.667 150.5,196C 149.697,200.414 149.197,204.914 149,209.5C 133.843,209.173 118.843,209.173 104,209.5C 103.445,202.755 103.612,195.922 104.5,189C 103.833,185.667 103.167,182.333 102.5,179C 103.167,178.667 103.833,178.333 104.5,178C 103.833,175 103.167,172 102.5,169C 103.227,165.155 103.227,161.155 102.5,157C 103.167,150.333 103.833,143.667 104.5,137C 104.043,136.586 103.709,136.086 103.5,135.5C 104.154,133.885 104.654,132.218 105,130.5C 106.159,131.566 106.992,131.233 107.5,129.5 Z"/></g>
<g><path style="opacity:0.337" fill="#00bf18" d="M 21.5,241.5 C 20.5084,241.672 19.8417,241.338 19.5,240.5C 20.3274,239.561 20.9941,239.895 21.5,241.5 Z"/></g>
<g><path style="opacity:0.319" fill="#00be19" d="M 74.5,244.5 C 74.1667,244.5 73.8333,244.5 73.5,244.5C 73.3691,243.624 73.7025,242.957 74.5,242.5C 75.463,242.97 75.463,243.637 74.5,244.5 Z"/></g>
</svg>
